<?xml version="1.0" encoding="utf-8"?>
<!-- Generator: Adobe Illustrator 27.0.0, SVG Export Plug-In . SVG Version: 6.00 Build 0)  -->
<svg version="1.1" id="图层_1" xmlns="http://www.w3.org/2000/svg" xmlns:xlink="http://www.w3.org/1999/xlink" x="0px" y="0px"
	 viewBox="0 0 125.17 50.44" enable-background="new 0 0 125.17 50.44" xml:space="preserve">
<g>
	<path fill="#17A4A2" d="M10.6,38c0,3.87-0.03,7.5,0.02,11.13c0.02,0.97-0.21,1.33-1.23,1.3c-2.74-0.06-5.49-0.04-8.24-0.01
		c-0.85,0.01-1.12-0.26-1.12-1.14c0.02-9.57-0.08-19.14,0.01-28.71C0.14,10.4,6.65,2.44,16.33,0.41C17.8,0.1,19.3,0,20.81,0.01
		C25.16,0.03,29.5,0.04,33.84,0c0.79-0.01,1.07,0.17,1.06,1.02c-0.05,2.83-0.06,5.67,0,8.5c0.02,0.9-0.28,1.11-1.13,1.1
		c-4.38-0.04-8.78,0.12-13.15-0.05c-5.19-0.2-9.97,4.08-9.99,9.54c-0.02,5.56,4.31,9.8,10.02,9.8c4.34,0,8.68,0.03,13.02-0.02
		c1-0.01,1.26,0.27,1.23,1.26c-0.07,2.74-0.05,5.49-0.01,8.24c0.01,0.79-0.16,1.07-1.02,1.06c-4.87-0.04-9.75,0.04-14.62-0.04
		C16.26,40.36,13.44,39.48,10.6,38z"/>
	<g>
		<g>
			<path fill="#17A4A2" d="M59.04,9.43c-0.08,10.02-0.1,16,1.19,16c0.25,0,0.4-1.44,0.44-3.08c0.31,0.48,0.83,1.13,1.21,1.44
				c-0.19,2.71-0.58,3.69-1.79,3.69c-2.92,0-2.96-5.44-2.98-16.17H46.91v4.13c0,3.52-0.4,8.92-2.81,12.31
				c-0.35-0.4-1.19-1.08-1.63-1.31c2.25-3.15,2.44-7.73,2.44-11v-6H59.04z M55.79,13.12c-0.63,1.96-1.44,3.88-2.4,5.65
				c1.4,1.9,2.65,3.73,3.44,5.15l-1.79,1.04c-0.6-1.21-1.58-2.77-2.71-4.4c-1.23,1.92-2.67,3.56-4.19,4.77
				c-0.35-0.46-0.98-1.15-1.44-1.48c1.63-1.15,3.15-2.92,4.46-4.96c-1.17-1.6-2.44-3.23-3.63-4.65l1.6-0.81
				c0.96,1.15,2.02,2.42,3.04,3.73c0.77-1.44,1.42-3,1.92-4.5L55.79,13.12z"/>
			<path fill="#17A4A2" d="M68.54,23.18c-1.71,0.46-3.5,0.9-4.98,1.29l-0.38-1.71c1.35-0.25,3.27-0.71,5.19-1.19L68.54,23.18z
				 M70.48,9.47c-0.15,2.79-0.42,6.38-0.65,8.75H71c0,0-0.02,0.52-0.04,0.77c-0.29,5.23-0.58,7.25-1.23,7.94
				c-0.4,0.48-0.83,0.65-1.48,0.69c-0.56,0.08-1.54,0.06-2.56,0.02c-0.04-0.5-0.23-1.23-0.52-1.69c0.96,0.08,1.88,0.1,2.27,0.1
				c0.33,0,0.56-0.04,0.75-0.25c0.42-0.44,0.69-2.04,0.92-5.96h-5.13c0.25-1.88,0.5-5,0.63-7.31l1.75,0.1
				c-0.1,1.73-0.29,3.85-0.46,5.58h2.15c0.23-1.96,0.44-4.6,0.58-7h-4.75V9.47H70.48z M79.58,25.52c0.98,0,1.15-0.56,1.31-2.85
				c0.42,0.29,1.15,0.63,1.67,0.73c-0.27,2.92-0.81,3.9-2.83,3.9h-4.06c-2.27,0-2.94-0.6-2.94-3.04v-6.73l-1.56,0.56l-0.48-1.79
				l2.04-0.71v-5.13h1.77v4.48l1.83-0.65V8.77h1.71v4.94l2.08-0.75l0.21-0.17l0.35-0.25L82,13.06l-0.08,0.33
				c-0.04,3.54-0.06,6.42-0.21,7.25c-0.12,0.96-0.48,1.38-1.08,1.6c-0.52,0.21-1.25,0.23-1.83,0.21c-0.02-0.56-0.21-1.44-0.4-1.9
				c0.35,0.04,0.85,0.02,1.08,0.02c0.23,0,0.4-0.06,0.48-0.5c0.1-0.42,0.15-2.21,0.17-5.25l-2.08,0.77v7.02h-1.71v-6.4l-1.83,0.65
				v7.38c0,1.08,0.19,1.27,1.31,1.27H79.58z"/>
			<path fill="#17A4A2" d="M86.67,23.75v1.75h-1.77V10h5.69v13.75H86.67z M86.67,11.73v4.19h2.17v-4.19H86.67z M88.83,22.02v-4.4
				h-2.17v4.4H88.83z M98.58,20.31c0.87,2.69,2.5,4.83,4.92,5.88c-0.42,0.38-0.98,1.08-1.25,1.58c-2.31-1.21-3.85-3.25-4.88-5.92
				c-0.81,2.31-2.54,4.33-6.08,5.79c-0.25-0.42-0.79-1.13-1.21-1.46c3.67-1.44,5.21-3.5,5.83-5.88h-4.77v-1.75h1.23v-6.79h3.92V8.68
				h1.77v3.08h4.21v6.79h1.1v1.75H98.58z M96.21,18.56c0.06-0.63,0.08-1.29,0.08-1.96v-3.08H94.1v5.04H96.21z M98.06,13.52v3.08
				c0,0.65-0.02,1.33-0.06,1.96h2.48v-5.04H98.06z"/>
			<path fill="#17A4A2" d="M123.29,9.87v1.79h-17.4V9.87H123.29z M121.23,14.95h1.94v12.67h-1.94v-0.94h-15.25V15.08h1.98v9.79
				h13.27V14.95z M119.48,13.73v9.29h-9.9v-9.29H119.48z M111.21,17.6h2.44v-2.27h-2.44V17.6z M111.21,21.43h2.44v-2.31h-2.44V21.43
				z M117.79,15.33h-2.46v2.27h2.46V15.33z M117.79,19.12h-2.46v2.31h2.46V19.12z"/>
		</g>
		<g>
			<path fill="#17A4A2" d="M42.42,35.78h3.48v0.77h-2.55v1.8h2.17v0.77h-2.17v2.53h-0.93V35.78z"/>
			<path fill="#17A4A2" d="M47.49,35.78h3.47v0.77h-2.55v1.64h2.15v0.78h-2.15v1.9h2.63v0.78h-3.56V35.78z"/>
			<path fill="#17A4A2" d="M52.84,35.78h0.95l1.95,3.45l0.61,1.24h0.04c-0.05-0.61-0.12-1.32-0.12-1.96v-2.74h0.88v5.87H56.2
				l-1.95-3.46l-0.61-1.23H53.6c0.05,0.61,0.12,1.28,0.12,1.92v2.77h-0.88V35.78z"/>
			<path fill="#17A4A2" d="M58.94,38.73c0-1.92,1.18-3.06,2.74-3.06c0.83,0,1.39,0.37,1.75,0.74L62.92,37
				c-0.29-0.3-0.65-0.53-1.21-0.53c-1.09,0-1.82,0.85-1.82,2.23c0,1.4,0.65,2.25,1.86,2.25c0.36,0,0.72-0.1,0.93-0.29v-1.38h-1.17
				v-0.76h2v2.55c-0.39,0.39-1.05,0.69-1.86,0.69C60.08,41.75,58.94,40.65,58.94,38.73z"/>
			<path fill="#17A4A2" d="M67.44,38.73c0-1.92,1.17-3.06,2.65-3.06c0.73,0,1.31,0.35,1.67,0.74L71.26,37
				c-0.3-0.31-0.67-0.53-1.15-0.53c-1.01,0-1.72,0.85-1.72,2.23c0,1.4,0.65,2.25,1.69,2.25c0.53,0,0.95-0.24,1.3-0.62l0.49,0.58
				c-0.47,0.54-1.07,0.85-1.83,0.85C68.58,41.75,67.44,40.65,67.44,38.73z"/>
			<path fill="#17A4A2" d="M73.48,35.78h0.93v2.39h2.51v-2.39h0.93v5.87h-0.93v-2.67H74.4v2.67h-0.93V35.78z"/>
			<path fill="#17A4A2" d="M79.94,35.78h0.93v5.87h-0.93V35.78z"/>
			<path fill="#17A4A2" d="M86.29,39.42l-1.76-3.65h0.99l0.68,1.56c0.18,0.44,0.35,0.85,0.55,1.29h0.03
				c0.19-0.45,0.38-0.85,0.56-1.29l0.69-1.56h0.97l-1.77,3.65v2.23h-0.93V39.42z"/>
			<path fill="#17A4A2" d="M90.29,35.78h0.93v5.87h-0.93V35.78z"/>
			<path fill="#17A4A2" d="M93.32,35.78h0.95l1.95,3.45l0.61,1.24h0.04c-0.05-0.61-0.12-1.32-0.12-1.96v-2.74h0.88v5.87h-0.95
				l-1.95-3.46l-0.61-1.23h-0.04c0.05,0.61,0.12,1.28,0.12,1.92v2.77h-0.88V35.78z"/>
			<path fill="#17A4A2" d="M101.77,38.73c0-1.92,1.18-3.06,2.74-3.06c0.83,0,1.39,0.37,1.75,0.74l-0.5,0.59
				c-0.29-0.3-0.65-0.53-1.21-0.53c-1.09,0-1.82,0.85-1.82,2.23c0,1.4,0.65,2.25,1.86,2.25c0.36,0,0.72-0.1,0.93-0.29v-1.38h-1.17
				v-0.76h2v2.55c-0.39,0.39-1.05,0.69-1.86,0.69C102.91,41.75,101.77,40.65,101.77,38.73z"/>
			<path fill="#17A4A2" d="M108.24,35.78h0.93v2.39h2.51v-2.39h0.93v5.87h-0.93v-2.67h-2.51v2.67h-0.93V35.78z"/>
			<path fill="#17A4A2" d="M114.67,39.13v-3.35h0.93v3.42c0,1.32,0.53,1.76,1.26,1.76c0.74,0,1.28-0.43,1.28-1.76v-3.42h0.89v3.35
				c0,1.92-0.88,2.63-2.18,2.63C115.56,41.75,114.67,41.04,114.67,39.13z"/>
			<path fill="#17A4A2" d="M123.69,39.97h-2.04l-0.5,1.68h-0.94l1.95-5.87h1.07l1.95,5.87h-0.98L123.69,39.97z M123.47,39.25
				l-0.23-0.79c-0.2-0.64-0.38-1.29-0.56-1.96h-0.03c-0.17,0.67-0.35,1.32-0.54,1.96l-0.24,0.79H123.47z"/>
		</g>
	</g>
	<circle fill="#17A4A2" cx="21.68" cy="20.17" r="6.33"/>
</g>
</svg>
